<svg viewBox="980 660 1730 1450" xmlns="http://www.w3.org/2000/svg">
  <path d="M2305.8 1021.63C2303.64 1031.57 2286.52 1065.24 2272.95 1086.14C2257.21 1110.28 2228.09 1141.52 2208.62 1154.91C2200.94 1159.98 2185.6 1168.71 2174.38 1174.18C2137.01 1192.44 2150.19 1191.23 1963.29 1192.65C1786.63 1193.86 1793.51 1193.46 1777.19 1204.01C1762.04 1213.74 1753.78 1228.15 1745.71 1259.59C1742.56 1271.36 1736.27 1295.1 1731.54 1312.34C1726.82 1329.58 1711.67 1384.76 1697.9 1435.08C1684.13 1485.19 1668.2 1543.61 1662.3 1564.91C1649.9 1609.34 1583.41 1855.42 1573.77 1891.54C1570.23 1904.93 1563.73 1930.08 1559.21 1947.33C1528.72 2064.79 1522.62 2086.29 1519.27 2086.9C1512.58 2088.32 1440.78 2066 1405.56 2051.8C1385.69 2043.69 1345.95 2026.44 1344.97 2025.43C1344.77 2025.23 1349.3 2005.95 1355.2 1982.62C1361.1 1959.29 1372.31 1914.66 1379.99 1883.42C1387.66 1852.18 1397.1 1815.66 1400.64 1802.27C1404.38 1788.88 1415.4 1746.48 1425.24 1707.94C1435.27 1669.39 1447.66 1621.51 1452.78 1601.43C1464.78 1554.97 1510.62 1383.55 1537.37 1284.95C1544.06 1260.4 1552.91 1227.34 1557.24 1211.51C1570.42 1162.01 1577.9 1144.16 1596.98 1114.54C1633.18 1058.95 1699.08 1021.63 1768.53 1017.57C1774.04 1017.16 1897.39 1016.76 2042.77 1016.55L2306.98 1016.15L2305.8 1021.63Z" fill="white"/>
  <path d="M2130.51 1353.32C2127.96 1362.04 2107.5 1400.59 2098.45 1413.78C2071.69 1452.93 2038.44 1480.72 1999.29 1496.75C1966.83 1509.94 1970.57 1509.53 1859.03 1510.95L1756.73 1512.17L1737.84 1518.86C1718.76 1525.35 1701.25 1535.7 1689.05 1547.47C1685.51 1551.12 1681.97 1553.55 1681.58 1552.94C1680.98 1552.34 1683.74 1541.18 1687.67 1527.99C1693.74 1507.21 1705.05 1467.38 1730.91 1376.38L1731.35 1374.82C1735.09 1361.84 1738.04 1350.48 1738.04 1349.87C1738.04 1349.26 1826.57 1348.86 1934.96 1348.86H2131.69L2130.51 1353.32Z" fill="white"/>
  <path d="M1894.44 681.614C1976.47 688.918 2065.2 714.885 2139.37 753.228C2240.49 805.568 2323.11 878.196 2389.61 973.545C2456.1 1068.69 2499.97 1187.98 2513.35 1310.31C2517.29 1345.2 2516.7 1428.58 2512.37 1463.48C2498.6 1576.27 2461.02 1682.78 2401.41 1778.94C2370.92 1827.83 2319.18 1888.7 2276.29 1925.82C2233.4 1963.15 2194.45 1989.93 2146.45 2015.49C2052.22 2065.6 1957.59 2089.13 1851.16 2089.33C1760.86 2089.33 1690.23 2074.93 1602.69 2038.82C1562.36 2022.18 1556.45 2018.94 1558.03 2014.68C1558.62 2012.85 1561.18 2004.53 1563.54 1996.62C1565.7 1988.51 1568.46 1981.81 1569.44 1981.81C1570.62 1981.81 1579.87 1985.87 1590.29 1990.74C1746.69 2064.38 1918.05 2069.66 2076.81 2005.35C2230.06 1943.47 2355.18 1817.49 2425.22 1654.18C2454.14 1587.23 2474.01 1500.4 2479.71 1418.85C2481.68 1389.23 2479.91 1332.83 2475.78 1300.17C2461.02 1181.08 2412.04 1061.79 2338.06 965.43C2319.18 940.883 2273.93 893.614 2249.54 872.719C2124.22 766.009 1962.11 711.233 1803.35 721.58C1684.92 729.289 1591.67 762.763 1489.17 834.376C1358.74 925.262 1262.74 1072.14 1227.72 1234.23C1216.11 1287.59 1213.95 1310.72 1213.95 1377.26C1213.95 1430.61 1214.54 1442.99 1218.08 1466.52C1236.96 1590.27 1280.05 1697.19 1348.71 1791.72C1358.74 1805.32 1369.36 1819.31 1372.51 1822.76L1378.41 1829.25L1372.9 1849.14C1369.95 1860.29 1367.2 1869.63 1366.81 1870.03C1365.63 1871.86 1355.4 1860.5 1335.92 1835.75C1313.69 1807.34 1311.92 1804.91 1292.25 1774.68C1233.42 1684.2 1192.5 1567.15 1180.11 1453.33C1175.98 1414.79 1175.98 1346.02 1180.11 1307.27C1197.22 1145.99 1262.54 1001.74 1370.15 887.528C1484.45 766.414 1635.15 692.975 1795.09 680.803C1816.14 679.18 1872.8 679.586 1894.44 681.614Z" fill="white"/>
  <path d="M2575.52 927.697C2583.78 940.883 2609.36 993.021 2620.37 1019.19C2655.59 1102.57 2679.39 1188.99 2687.26 1261.82C2696.11 1345.61 2695.52 1412.96 2685.1 1492.89C2667.19 1629.63 2622.34 1755 2547.98 1875.31C2523.58 1914.87 2484.43 1968.02 2456.69 1999.67L2447.25 2010.42L2432.1 2003.93C2423.64 2000.48 2416.76 1996.42 2416.76 1995C2416.76 1993.78 2418.72 1990.94 2420.89 1988.71C2428.56 1981.61 2453.35 1950.57 2474.6 1921.36C2578.08 1779.15 2637.29 1626.38 2653.82 1459.62C2657.36 1424.12 2657.95 1341.55 2654.8 1304.22C2650.28 1248.03 2640.05 1194.47 2623.32 1136.86C2603.65 1069.91 2579.85 1012.29 2548.96 956.707L2538.93 938.854L2546.21 934.188C2561.94 924.045 2567.26 920.799 2569.22 920.799C2570.4 920.799 2573.16 924.045 2575.52 927.697Z" fill="white"/>
  <path d="M1160.83 919.987C1167.72 925.059 1173.42 929.725 1173.42 930.131C1173.42 930.537 1166.73 942.506 1158.47 956.707C1087.84 1077.42 1045.74 1234.64 1045.55 1377.46C1045.55 1499.79 1077.42 1635.31 1134.07 1753.58C1165.94 1820.13 1201.75 1876.73 1250.15 1936.98C1259.98 1949.15 1267.85 1959.5 1267.85 1960.11C1267.85 1960.92 1260.77 1964.98 1251.92 1969.24L1235.98 1977.15L1227.52 1967.82C1205.68 1943.88 1168.31 1892.14 1144.7 1852.99C1052.43 1700.84 1001.48 1505.88 1010.13 1337.29C1016.23 1218 1039.64 1118.4 1086.47 1012.7C1107.32 966.039 1140.57 907.612 1145.29 909.438C1146.86 910.047 1153.75 914.916 1160.83 919.987Z" fill="white"/>
</svg>
